<svg id="Layer_1" data-name="Layer 1" xmlns="http://www.w3.org/2000/svg" viewBox="0 0 459.68 299.12"><defs><style>.cls-1{fill:#f0f1f1;fill-rule:evenodd;}</style></defs><path class="cls-1" d="M370.75,74.57h10.5V34h-10.5V24.19h84.77V42.25H432.66V34H404V46.35h28.64v9.91H404V74.57h28.64V62.08h22.86v22.3H370.75ZM263.22,84.38V74.57h10.5V34h-10.5V24.19H294.3L327.9,59V34H317.48V24.19h43.7V34H350.76V84.38h-21L296.5,50.72V74.57h10.42v9.81Zm-53.37,0V74.57h10.5V34h-10.5V24.19h43.7V34H243.12V74.57h10.43v9.81Z" transform="translate(0)"/><path class="cls-1" d="M435.12,96.61l4-3.64h16.4l4.16,3.75v8h-7.37V99.8h-9.83v9.94h13l4.2,3.92v15.92l-5.39,5.14H440l-4.88-4.46v-7.39h7.36v5h9.83V116.51h-13l-4.2-3.9Zm-29.32.68L410.42,93h15l4.35,4.09v8.63h-7.36V99.8h-9.21v28.12h9.21v-6h7.36V131l-3.84,3.68H410.37l-4.57-4.13Zm-19.5,37.43v-6.8h3.38V99.8H386.3V93h14.07V99.8H397v28.12h3.35v6.8Zm-36.06-26.85V93h30.68v14.9h-7.1V99.8h-4.56v28.12h3.36v6.8H358.54v-6.8h3.36V99.8h-4.56v8.07ZM320.29,96.61l4-3.64h16.4l4.15,3.75v8h-7.36V99.8h-9.83v9.94h13l4.2,3.92v15.92l-5.39,5.14H325.16l-4.87-4.46v-7.39h7.36v5h9.83V116.51h-13l-4.19-3.9ZM300.8,134.72v-6.8h3.38V99.8H300.8V93h14.07V99.8h-3.35v28.12h3.35v6.8Zm-29.33-4.41V97.61l5-4.64h15.21l3.74,3.8v9.08H288v-6h-9.21v28.12H288v-9.53h-4.29V111.7H295.4v18.89l-4.1,4.13H276.39ZM258.71,99.8H249.5v28.12h9.21Zm-16.57,30.42V97.48L246.92,93h14.42l4.73,4.51v32.74l-4.82,4.5H246.66ZM209.44,93h14.08V99.8h-3.36v28.12h9.22v-9.77h7.36v16.57h-27.3v-6.8h3.38V99.8h-3.38Z" transform="translate(0)"/><path class="cls-1" d="M449.13,187.82h7.36v6.81h-7.36ZM434.81,159.7h-9.22v28.12h9.22Zm-19.94-6.83h23.46l3.85,3.36v34.53l-4.36,3.87H414.87v-6.81h3.38V159.7h-3.38Zm-36.05,14.9v-14.9H409.5v14.9h-7.11V159.7h-4.55v28.12h3.36v6.81H387.11v-6.81h3.37V159.7h-4.56v8.07Zm-32.69-14.9h14.08v6.83h-3.36v28.12h9.22v-9.77h7.36v16.58h-27.3v-6.81h3.39V159.7h-3.39Zm-27.88,34.95h7.36v6.81h-7.36Zm-37.62-20v-14.9h30.68v14.9H304.2V159.7h-4.55v28.12H303v6.81H288.92v-6.81h3.37V159.7h-4.56v8.07Zm-38.49-8.07v-6.83h14.08v6.83h-3.36l5.81,22.82,5.84-22.82h-3.67v-6.83h14.39v6.83h-3.37l-9.22,34.93h-8L245.2,159.7Zm-12.76,0h-9.22v10.52h9.22Zm-19.94,34.93v-6.81h3.38V159.7h-3.38v-6.83H232.5l4.24,3.94v16L232.2,177h-12v10.87h3.36v6.81Z" transform="translate(0)"/><path class="cls-1" d="M143.36,70.89l4.06-1q9,9.64,8.45,20.64l-4.39,2.71C150.47,84.64,147.08,77.65,143.36,70.89Zm-19,26.38q.86-13.18,1.7-26.38a35.14,35.14,0,0,0,13.53-.68c5.75,8.06,7.78,16.75,8.11,25.71Q136.08,96.6,124.41,97.27Zm21.32,37.56c4.11-9.81,6.82-21.32,6.42-36.54l5.76-.68q2.7,18.94-1.36,31.13C152.94,133.6,149.33,134.49,145.73,134.83Zm-34.17,3A125,125,0,0,0,123.4,100c8.34.56,16.69-.22,25,.34-1.86,17.48-5.13,32.37-11.5,37.21ZM80.09,174.75l29.1-32.48,25.37,1.35C127,155.49,116.12,164.68,103.1,172c11.49-2.3,23.1-5.28,38.23-29.43l10.15-3.73-2.37,7.45C141,161,127.53,171.24,109.53,177.79,95.28,178.75,86.23,177.4,80.09,174.75Zm-2-128.56C95.4,55.7,112.57,65.36,140,64.8c-2.65-7.33-9.64-13.42-18.6-18.95,15.79,6.37,30,15.5,38.56,34.51,7.69,22.7,6.76,38.77,2.71,52.44Q152.32,159.18,133.89,172c-17.15,9.72-34.29,9.94-51.43,8.8-15.12-3.49-24.7-9.36-33.49-15.57,9.32,3.46,17.91,8.12,30.11,6.77,9.1-8.71,17.17-18.46,22.67-30.78-18-3.9-26.12-9.2-31.46-14.89,11.72,4.52,23.45,8.36,35.18,7.44,7.33-9.36,10.94-21.2,12.85-34.17-20-3.26-28.89-8.9-36.2-14.88,9.92,4.29,23.22,9.14,38.57,9.81.45-8.23-.11-17.14.34-25.37C90.06,57.05,81.84,51.08,78.07,46.19Z" transform="translate(0)"/><path class="cls-1" d="M49.65,123.66,52,139.56l3,6.77,7.44,7.78v4.74l-5.07,3.38-4.4-3L48.29,149l-1.69-7.45s-1.69-4.73-1-6.42a14.67,14.67,0,0,0,.68-4.4Zm17.25-68,2-4.06,2-.67,3,2-.33,3-8.46,1.35ZM81.11,40.44l2.37,3.05,5.75-.34,8.12-.34,1-2.71H87.87ZM67.91,68.18,75.7,64.8l6.09-3.38,4.39-2.71,4.74,1,3.72,1,.34,3-3.72.68-3.39,1.69-3.72,3.38-2.36,1-1.36,2.71-.34,3-2.7,3L75.7,80H73.33L72,82.73H70.29L72,79l1-3.39-1.35-3.38-3,1.35Zm2.71-23.34,1.69,3.38-11.5,5.07-3.72,4.06v4.74l-2.71,1v4.06l-3.72.67-3,4.4-3.39.68-1.35,4.39H46.6l-.33,3.39L43.56,81l-.34,4.06-4.06,1-.68,6.09v6.09l1.7,2.71,4,2.36v4.4h-4l1,4.06-1,6.43-2.38,5.41-1-3-5.08,1-2.7,1,.34,6.76L31,133.13l2.37,6.09,2.37,6.43,3.38,5.08,5.07,7.78,1.7,3.38-8.13-7.44L34.09,148l-3.73-6.09L27,134.49l-1.35-6.09-1.69-5.75v-6.77l-1-10.15.34-6.42L26,89.15l1.36-5.41,2.37,3.39h2.36l6.43-5.08,1.7,1.69.67-7.44H37.8l-5.75,6.09H29L31.71,79l5.08-6.43,6.77-8.8s3-4.4,5.41-5.41,6.09-5.08,6.09-5.08l10.15-5.75S71,44.84,70.62,44.84Zm64.87,4.58C64.29,18.67,14.89,66,17.69,113.06c.34,38.83,43.09,86.55,116.45,64.32-42,25-82.82,22.68-112.39-6.1C-9.51,133.6-2.51,94,14.31,64.32,39.47,29.05,94.86,16.19,135.49,49.42Z" transform="translate(0)"/><path class="cls-1" d="M168.46,1.22A5.88,5.88,0,0,1,168,7.61L155.43,22a37.28,37.28,0,0,0,1.51,10.62,79.58,79.58,0,0,1-.41,8.54l5.94,2-4,2.5,5.89,2.53-5.18.76c1.55,6,2.72,12.66,4.63,18.75-1.67,1.34-3.22,1.61-4.65.83-3.71-14.28-8.32-27.37-14.53-38.35Q133.28,40.51,122,50.77q1.33,6.06,2.68,12.1l-2.88,1.83c-2.07-3.9-4.8-9.26-6.88-13.16-3.77-2.28-9-5.32-12.74-7.6l2-2.78L116,44.52Q127,33.81,137.86,23.08c-10.62-6.83-23.42-12.17-37.46-16.69-.7-1.47-.34-3,1.09-4.59,6,2.25,12.5,3.79,18.45,5.69q.54-2.56,1.06-5.13l2.19,6,2.73-3.88c.55,2,1.11,4,1.66,6.05a77.38,77.38,0,0,1,8.54.08,37.53,37.53,0,0,0,10.52,2.11L161.77,1a5.87,5.87,0,0,1,6.4-.08Z" transform="translate(0)"/><path class="cls-1" d="M15.68,101.33c18.11,1.39,34.72-3.23,49.14-16.61q19.55,10.91,39.1,21.8c-15.26,4.83-36.25,8.55-57.53,6.84,6.75-3.57,18.67-2,19.81-5.45A6,6,0,0,0,61,103.06c-6.8-1.39-14.62.2-23.27,2.51C25.41,107.31,20.48,104.3,15.68,101.33Z" transform="translate(0)"/><path class="cls-1" d="M4.66,86.85q.4,42.26,89,29c-55.44,21.33-82.29,13.37-93.09-11Q2.61,95.84,4.66,86.85Z" transform="translate(0)"/><path class="cls-1" d="M372.18,222.25h24.06v12.58H390.5v51.76h15.77v-18h12.58v30.51H372.18V286.59H378V234.83h-5.78Zm-34.3,23.54-6.31,23.26h12.22Zm-28.35,40.8h5.24l17.28-64.34h11.4l17.16,64.34h6.31v12.53H342.2V286.59h6.22L347,281.45H328.32L327,286.59h6.61v12.53H309.53Zm-59.19,12.53V286.59h5.79V234.83h-5.79V222.25h17.11L286,266.66V234.83h-5.74V222.25h24.06v12.58h-5.74v64.29H287l-18.34-43v30.46h5.74v12.53Zm-29.38,0V286.59h5.79V234.83H221V222.25H245v12.58h-5.73v51.76H245v12.53ZM174.77,291V230.81l8.52-8.56h26l6.4,7V246H203.11V234.83H187.36v51.76h15.75V269.05h-7.35V256.74h19.93v34.77l-7,7.61H183.2Zm-29.38,8.12V286.59h5.79V234.83h-5.79V222.25h24.06v12.58h-5.74v51.76h5.74v12.53Zm-21.66-64.29H108v21h15.77ZM89.64,222.25h40.11l6.56,6.27v33.09l-6.56,6.84H125.6l9.2,18.14h5.32v12.53H127.37l-15-30.67H108v18.14h5.74v12.53H89.64V286.59h5.79V234.83H89.64ZM71.8,234.83H56.05v51.76H71.8Zm-28.33,56V230.56l8.17-8.31H76.3l8.08,8.31v60.26l-8.24,8.3H51.2Z" transform="translate(0)"/></svg>