<svg id="Layer_1" data-name="Layer 1" xmlns="http://www.w3.org/2000/svg" viewBox="0 0 146.76 62.14"><defs><style>.cls-1{fill:#15406d;}.cls-1,.cls-2{fill-rule:evenodd;}.cls-2{fill:#47a5af;}</style></defs><path class="cls-1" d="M118.77,24.31h3.36V11.37h-3.36V8.22h27.07V14h-7.3V11.37H129.4V15.3h9.14v3.16H129.4v5.85h9.14v-4h7.3v7.12H118.77ZM84.45,27.44V24.31H87.8V11.37H84.45V8.22h9.92l10.73,11.1v-8h-3.33V8.22h14v3.15h-3.33V27.44H105.7L95.07,16.69v7.62H98.4v3.13Zm-17,0V24.31h3.36V11.37H67.4V8.22h14v3.15H78V24.31h3.33v3.13Z" transform="translate(-0.41 -0.5)"/><path class="cls-2" d="M139.33,31.34l1.28-1.16h5.24l1.32,1.2v2.54h-2.35V32.36h-3.14v3.18h4.15l1.34,1.25v5.08l-1.72,1.64h-4.56l-1.56-1.42V39.73h2.35v1.61h3.14V37.7h-4.15l-1.34-1.25Zm-9.36.22,1.47-1.38h4.78l1.39,1.31v2.75h-2.35V32.36h-2.94v9h2.94V39.42h2.35v2.91l-1.23,1.18h-4.95L130,42.19Zm-6.23,12V41.34h1.08v-9h-1.08V30.18h4.5v2.18h-1.07v9h1.07v2.17Zm-11.51-8.57V30.18H122v4.76h-2.26V32.36H118.3v9h1.07v2.17h-4.49V41.34H116v-9H114.5v2.58Zm-9.56-3.6,1.27-1.16h5.24l1.33,1.2v2.54h-2.36V32.36H105v3.18h4.15l1.34,1.25v5.08l-1.72,1.64h-4.57l-1.55-1.42V39.73H105v1.61h3.13V37.7H104l-1.34-1.25ZM96.44,43.51V41.34h1.08v-9H96.44V30.18h4.5v2.18H99.86v9h1.08v2.17ZM87.08,42.1V31.67l1.59-1.49h4.85l1.2,1.22v2.9H92.37V32.36H89.43v9h2.94v-3H91V36.16h3.72v6l-1.31,1.32H88.65ZM83,32.36h-3v9h3Zm-5.3,9.71V31.62l1.53-1.44h4.61l1.51,1.44V42.07l-1.55,1.44H79.16ZM67.27,30.18h4.5v2.18H70.7v9h2.94V38.22H76v5.29H67.27V41.34h1.08v-9H67.27Z" transform="translate(-0.41 -0.5)"/><path class="cls-2" d="M143.8,60.46h2.35v2.18H143.8Zm-4.57-9h-2.94v9h2.94Zm-6.37-2.18h7.5l1.22,1.07v11l-1.39,1.24h-7.33V60.46H134v-9h-1.09Zm-11.51,4.75V49.31h9.8v4.75h-2.27V51.49h-1.45v9h1.07v2.18H124V60.46h1.08v-9h-1.46v2.57Zm-10.43-4.75h4.49v2.18h-1.07v9h2.94V57.35h2.35v5.29h-8.71V60.46H112v-9h-1.08ZM102,60.46h2.34v2.18H102Zm-12-6.4V49.31H99.8v4.75H97.53V51.49H96.08v9h1.07v2.18h-4.5V60.46h1.07v-9H92.27v2.57Zm-12.3-2.57V49.31h4.5v2.18H81.13L83,58.77l1.87-7.28H83.69V49.31h4.59v2.18H87.2L84.26,62.64H81.72l-3-11.15Zm-4.07,0H70.7v3.36h2.94ZM67.27,62.64V60.46h1.08v-9H67.27V49.31h7.36L76,50.56v5.1L74.54,57H70.7v3.47h1.07v2.18Z" transform="translate(-0.41 -0.5)"/><path class="cls-2" d="M46.18,23.13l1.29-.32a8.89,8.89,0,0,1,2.7,6.59l-1.4.86A19.24,19.24,0,0,0,46.18,23.13Zm-6,8.43.54-8.43A11.11,11.11,0,0,0,45,22.92a14.59,14.59,0,0,1,2.59,8.2Zm6.8,12a27.37,27.37,0,0,0,2-11.67l1.84-.22a22,22,0,0,1-.43,9.94A4.36,4.36,0,0,1,46.93,43.55ZM36,44.52a39.82,39.82,0,0,0,3.78-12.1c2.67.18,5.33-.07,8,.11-.59,5.58-1.63,10.33-3.67,11.88ZM26,56.29q4.64-5.19,9.29-10.37l8.1.43a27.85,27.85,0,0,1-10,9.08C37,54.69,40.7,53.74,45.53,46l3.24-1.19c-.25.8-.51,1.58-.76,2.38-2.58,4.68-6.89,8-12.64,10C30.83,57.57,27.94,57.14,26,56.29Zm-.65-41c5.53,3,11,6.13,19.77,6-.85-2.34-3.08-4.29-6-6.05,5.05,2,9.58,4.94,12.32,11,2.45,7.25,2.15,12.38.86,16.75Q49,51.32,43.15,55.43c-5.47,3.1-10.95,3.17-16.42,2.8a28.3,28.3,0,0,1-10.69-5c3,1.1,5.72,2.59,9.61,2.16a31.31,31.31,0,0,0,7.24-9.83c-5.74-1.25-8.34-2.94-10-4.75,3.74,1.44,7.48,2.66,11.23,2.37,2.34-3,3.49-6.77,4.1-10.91-6.38-1-9.22-2.84-11.55-4.75a34.69,34.69,0,0,0,12.31,3.13c.14-2.63,0-5.47.11-8.1C29.16,18.71,26.53,16.81,25.33,15.24Z" transform="translate(-0.41 -0.5)"/><path class="cls-1" d="M16.26,40,17,45.06l1,2.16,2.37,2.48v1.51L18.74,52.3l-1.4-1-1.51-3.24-.55-2.37s-.54-1.52-.32-2.06a4.59,4.59,0,0,0,.22-1.4Zm5.5-21.71.65-1.3.65-.21,1,.64-.11,1-2.7.43Zm4.54-4.86.76,1,1.83-.1,2.6-.11.32-.87H28.46Zm-4.21,8.86,2.48-1.08,1.95-1.08,1.4-.87,1.52.32,1.18.33.11,1-1.19.22-1.08.54L27.27,22.7l-.75.32-.44.87-.1,1-.87,1-.54.22h-.75l-.44.86h-.53l.53-1.19.33-1.08-.44-1.08-1,.43ZM23,14.81l.54,1.08-3.67,1.62-1.19,1.3v1.51l-.86.33v1.29l-1.19.22-1,1.4-1.08.22-.43,1.4h1.18l-.1,1.08-.87.11-.11,1.3L12.91,28l-.22,2v1.94l.54.86,1.3.76v1.4h-1.3l.33,1.3-.33,2L12.47,40l-.32-1-1.62.32-.86.32.1,2.16.54,1.2L11.07,45l.76,2,1.08,1.62,1.62,2.48.54,1.09-2.6-2.38-1.18-2.05L10.1,45.81,9,43.44l-.43-1.95-.54-1.84V37.49l-.33-3.23.11-2L8.7,29l.43-1.72.75,1.07h.76l2-1.62.54.55.22-2.38h-1L10.64,26.8h-1l.86-1.08,1.62-2,2.16-2.81A6.13,6.13,0,0,1,16,19.14,9,9,0,0,0,18,17.51l3.23-1.83S23.06,14.81,23,14.81Zm20.71,1.47C20.93,6.46,5.16,21.56,6.05,36.6,6.16,49,19.81,64.23,43.23,57.13c-13.4,8-26.44,7.24-35.88-1.94C-2.63,43.15-.4,30.51,5,21A26.87,26.87,0,0,1,43.66,16.28Z" transform="translate(-0.41 -0.5)"/><path class="cls-1" d="M54.19.89a1.89,1.89,0,0,1-.14,2l-4,4.6a11.93,11.93,0,0,0,.48,3.4,27.11,27.11,0,0,1-.13,2.72l1.9.64-1.29.8,1.88.81-1.65.24c.49,1.93.87,4,1.48,6a1.29,1.29,0,0,1-1.49.26,51,51,0,0,0-4.64-12.24l-7.23,6.56c.29,1.29.57,2.57.86,3.86l-.93.58c-.66-1.24-1.53-2.95-2.19-4.19-1.2-.74-2.86-1.7-4.07-2.43l.64-.89,3.8,1.07,7-6.84a51.17,51.17,0,0,0-12-5.33,1.28,1.28,0,0,1,.35-1.47c1.9.72,4,1.21,5.89,1.82.11-.55.23-1.09.34-1.64l.7,1.92.87-1.23c.18.64.35,1.28.53,1.93a25,25,0,0,1,2.72,0,11.93,11.93,0,0,0,3.36.67L52.05.81a1.9,1.9,0,0,1,2.05,0Z" transform="translate(-0.41 -0.5)"/><path class="cls-2" d="M5.41,32.85a19.79,19.79,0,0,0,15.69-5.3l12.48,7a49.71,49.71,0,0,1-18.36,2.18c2.15-1.14,6-.65,6.32-1.74a1.93,1.93,0,0,0-1.66-1.55c-2.17-.44-4.66.07-7.43.81C8.52,34.76,6.94,33.8,5.41,32.85Z" transform="translate(-0.41 -0.5)"/><path class="cls-2" d="M1.89,28.23Q2,41.72,30.31,37.48C12.61,44.3,4,41.75.59,34,1,32.05,1.46,30.14,1.89,28.23Z" transform="translate(-0.41 -0.5)"/></svg>